<?xml version="1.0" encoding="UTF-8" standalone="no"?>
<!DOCTYPE svg PUBLIC "-//W3C//DTD SVG 20010904//EN"
              "http://www.w3.org/TR/2001/REC-SVG-20010904/DTD/svg10.dtd">

<svg xmlns="http://www.w3.org/2000/svg"
     width="4.81944in" height="0.527778in"
     viewBox="0 0 347 38">
  <path id="NODEL FILMS"
        fill="black" stroke="black" stroke-width="1"
        d="M 4.00,36.00
           C 4.00,36.00 12.00,36.00 12.00,36.00
             12.00,36.00 12.00,12.69 12.00,12.69
             12.00,12.69 24.50,36.00 24.50,36.00
             24.50,36.00 34.00,36.00 34.00,36.00
             34.00,36.00 34.00,2.00 34.00,2.00
             34.00,2.00 26.00,2.00 26.00,2.00
             26.00,2.00 26.00,25.31 26.00,25.31
             26.00,25.31 13.50,2.00 13.50,2.00
             13.50,2.00 4.00,2.00 4.00,2.00
             4.00,2.00 4.00,36.00 4.00,36.00 Z
           M 64.77,10.02
           C 66.26,12.03 67.00,14.86 67.00,18.52
             67.00,22.15 66.26,24.97 64.77,26.98
             63.29,28.99 61.19,30.00 58.48,30.00
             55.80,30.00 53.71,28.99 52.22,26.98
             50.74,24.97 50.00,22.15 50.00,18.52
             50.00,14.86 50.74,12.03 52.22,10.02
             53.71,8.01 55.80,7.00 58.48,7.00
             61.19,7.00 63.29,8.01 64.77,10.02 Z
           M 45.66,5.66
           C 42.55,8.76 41.00,13.05 41.00,18.52
             41.00,23.96 42.55,28.24 45.66,31.34
             48.76,34.45 53.04,36.00 58.50,36.00
             63.97,36.00 68.25,34.45 71.34,31.34
             74.45,28.24 76.00,23.96 76.00,18.52
             76.00,13.05 74.45,8.76 71.34,5.66
             68.25,2.55 63.97,1.00 58.50,1.00
             53.04,1.00 48.76,2.55 45.66,5.66 Z
           M 94.09,8.00
           C 97.65,8.00 100.35,8.94 102.20,10.81
             104.07,12.68 105.00,15.40 105.00,18.97
             105.00,22.55 104.07,25.29 102.20,27.17
             100.34,29.06 97.64,30.00 94.09,30.00
             94.09,30.00 91.00,30.00 91.00,30.00
             91.00,30.00 91.00,8.00 91.00,8.00
             91.00,8.00 94.09,8.00 94.09,8.00 Z
           M 82.00,36.00
           C 82.00,36.00 91.47,36.00 91.47,36.00
             96.52,36.00 100.31,35.64 102.83,34.91
             105.36,34.17 107.53,32.92 109.33,31.16
             110.91,29.61 112.08,27.84 112.84,25.83
             113.61,23.82 114.00,21.53 114.00,18.97
             114.00,16.43 113.61,14.16 112.84,12.16
             112.08,10.16 110.91,8.39 109.33,6.84
             107.54,5.08 105.39,3.84 102.89,3.11
             100.39,2.37 96.58,2.00 91.47,2.00
             91.47,2.00 82.00,2.00 82.00,2.00
             82.00,2.00 82.00,36.00 82.00,36.00 Z
           M 120.00,36.00
           C 120.00,36.00 144.00,36.00 144.00,36.00
             144.00,36.00 144.00,30.00 144.00,30.00
             144.00,30.00 129.00,30.00 129.00,30.00
             129.00,30.00 129.00,21.00 129.00,21.00
             129.00,21.00 143.00,21.00 143.00,21.00
             143.00,21.00 143.00,15.00 143.00,15.00
             143.00,15.00 129.00,15.00 129.00,15.00
             129.00,15.00 129.00,8.00 129.00,8.00
             129.00,8.00 143.00,8.00 143.00,8.00
             143.00,8.00 143.00,2.00 143.00,2.00
             143.00,2.00 120.00,2.00 120.00,2.00
             120.00,2.00 120.00,36.00 120.00,36.00 Z
           M 151.00,36.00
           C 151.00,36.00 175.00,36.00 175.00,36.00
             175.00,36.00 175.00,30.00 175.00,30.00
             175.00,30.00 160.00,30.00 160.00,30.00
             160.00,30.00 160.00,2.00 160.00,2.00
             160.00,2.00 151.00,2.00 151.00,2.00
             151.00,2.00 151.00,36.00 151.00,36.00 Z
           M 196.00,36.00
           C 196.00,36.00 205.00,36.00 205.00,36.00
             205.00,36.00 205.00,21.00 205.00,21.00
             205.00,21.00 218.00,21.00 218.00,21.00
             218.00,21.00 218.00,15.00 218.00,15.00
             218.00,15.00 205.00,15.00 205.00,15.00
             205.00,15.00 205.00,8.00 205.00,8.00
             205.00,8.00 219.00,8.00 219.00,8.00
             219.00,8.00 219.00,2.00 219.00,2.00
             219.00,2.00 196.00,2.00 196.00,2.00
             196.00,2.00 196.00,36.00 196.00,36.00 Z
           M 227.00,36.00
           C 227.00,36.00 236.00,36.00 236.00,36.00
             236.00,36.00 236.00,2.00 236.00,2.00
             236.00,2.00 227.00,2.00 227.00,2.00
             227.00,2.00 227.00,36.00 227.00,36.00 Z
           M 244.00,36.00
           C 244.00,36.00 268.00,36.00 268.00,36.00
             268.00,36.00 268.00,30.00 268.00,30.00
             268.00,30.00 253.00,30.00 253.00,30.00
             253.00,30.00 253.00,2.00 253.00,2.00
             253.00,2.00 244.00,2.00 244.00,2.00
             244.00,2.00 244.00,36.00 244.00,36.00 Z
           M 273.00,36.00
           C 273.00,36.00 281.00,36.00 281.00,36.00
             281.00,36.00 281.00,11.31 281.00,11.31
             281.00,11.31 288.75,30.00 288.75,30.00
             288.75,30.00 294.25,30.00 294.25,30.00
             294.25,30.00 302.00,11.31 302.00,11.31
             302.00,11.31 302.00,36.00 302.00,36.00
             302.00,36.00 310.00,36.00 310.00,36.00
             310.00,36.00 310.00,2.00 310.00,2.00
             310.00,2.00 299.19,2.00 299.19,2.00
             299.19,2.00 291.48,20.55 291.48,20.55
             291.48,20.55 283.81,2.00 283.81,2.00
             283.81,2.00 273.00,2.00 273.00,2.00
             273.00,2.00 273.00,36.00 273.00,36.00 Z
           M 336.02,1.41
           C 334.10,1.14 332.23,1.00 330.41,1.00
             326.41,1.00 323.34,1.93 321.20,3.80
             319.07,5.65 318.00,8.31 318.00,11.77
             318.00,14.53 318.78,16.72 320.34,18.36
             321.92,19.98 324.40,21.17 327.80,21.91
             327.80,21.91 331.05,22.67 331.05,22.67
             333.03,23.11 334.34,23.60 335.00,24.16
             335.67,24.70 336.00,25.47 336.00,26.48
             336.00,27.61 335.49,28.48 334.48,29.09
             333.47,29.70 332.02,30.00 330.11,30.00
             328.23,30.00 326.29,29.75 324.27,29.25
             322.24,28.74 320.16,27.99 318.00,27.00
             318.00,27.00 318.00,33.70 318.00,33.70
             320.13,34.46 322.25,35.04 324.38,35.42
             326.51,35.81 328.64,36.00 330.75,36.00
             335.23,36.00 338.56,35.11 340.73,33.33
             342.91,31.55 344.00,28.83 344.00,25.17
             344.00,22.39 343.24,20.24 341.72,18.73
             340.21,17.22 337.66,16.10 334.08,15.36
             334.08,15.36 330.50,14.58 330.50,14.58
             328.79,14.18 327.61,13.71 326.97,13.16
             326.32,12.60 326.00,11.83 326.00,10.84
             326.00,9.53 326.48,8.56 327.44,7.94
             328.41,7.31 329.90,7.00 331.91,7.00
             333.43,7.00 335.04,7.26 336.75,7.77
             338.46,8.27 340.21,9.01 342.00,10.00
             342.00,10.00 342.00,2.59 342.00,2.59
             339.94,2.06 337.94,1.67 336.02,1.41 Z" />
</svg>
