<?xml version="1.0" encoding="UTF-8"?>
<svg viewBox="0 0 90 90" xmlns="http://www.w3.org/2000/svg">
<title>nodelfilms.com icon</title>
<rect width="100%" height="100%" fill="none"/>
<path transform="rotate(223.7 5.0994 44.719)" d="m-8.9116 58.995v-28.552l28.022 28.552h-28.022z" color="rgb(0, 0, 0)" fill="#242424" marker-end="" marker-mid="" marker-start="" stroke="#242424" stroke-dashoffset="" stroke-linejoin="round" stroke-width="2"/>
<path d="m27.634 16.322c0-5.9825 5.0362-10.828 11.254-10.828s11.254 4.8458 11.254 10.828-5.0362 10.828-11.254 10.828-11.254-4.8458-11.254-10.828z" fill="#242424" marker-end="" marker-mid="" marker-start="" stroke="#242424" stroke-dashoffset="" stroke-linejoin="round" stroke-width="2"/>
<path d="m52.002 16.287c0-6.065 4.936-10.978 11.03-10.978 6.0938 0 11.03 4.9126 11.03 10.978s-4.936 10.978-11.03 10.978c-6.0938 0-11.03-4.9126-11.03-10.978z" fill="#242424" marker-end="" marker-mid="" marker-start="" stroke="#242424" stroke-dashoffset="" stroke-linejoin="round" stroke-width="2"/>
<rect transform="rotate(28.185 38.236 72.78)" x="35.236" y="57.78" width="6" height="30" color="rgb(0, 0, 0)" fill="#242424" stroke="#242424" stroke-dashoffset="" stroke-linejoin="round" stroke-width="2"/>
<rect transform="rotate(-28.458 60.325 72.332)" x="57.325" y="57.332" width="6" height="30" color="rgb(0, 0, 0)" fill="#242424" stroke="#242424" stroke-dashoffset="" stroke-linejoin="round" stroke-width="2"/>
<rect x="21.553" y="29.163" width="61.947" height="31.461" color="rgb(0, 0, 0)" fill="#242424" stroke="#242424" stroke-dashoffset="" stroke-linejoin="round" stroke-width="2"/>
</svg>
